<svg xmlns="http://www.w3.org/2000/svg" width="1537.116" height="1217.693" viewBox="0 0 1537.116 1217.693">
  <g id="g580" transform="translate(-1953.274 -248.047)">
    <path id="path576" d="M2198.434,899.732V654.5h-58.141l-64.437,103.684L2011.416,654.5h-58.142V899.734h53.236V740.686l68.318,103.4h1.391l68.982-104.71V899.734h53.234ZM2441.461,654.5h-53.746V899.737h53.746Zm365.207,245.229V851.4H2684.452V654.5h-53.965V899.732Zm344.589,0V851.4H3028.97V654.5h-53.893V899.732Zm170.462-124.485L3352.84,795.9a124.506,124.506,0,0,1,19.112-6.516,88.592,88.592,0,0,1,21.967-2.638,51.244,51.244,0,0,1,31.707,8.861,29.288,29.288,0,0,1,11.713,24.969,30.822,30.822,0,0,1-11.059,25.7,46.561,46.561,0,0,1-29.948,8.785,68.164,68.164,0,0,1-30.463-6.956,130.032,130.032,0,0,1-27.969-19.622l-32.588,38.735a138.488,138.488,0,0,0,39.911,26.8,128.43,128.43,0,0,0,51.839,9.74,118.976,118.976,0,0,0,38.446-5.933,84.855,84.855,0,0,0,29.291-16.987,74.937,74.937,0,0,0,18.817-26.8,88.555,88.555,0,0,0,6.738-35.369,86.117,86.117,0,0,0-6.738-35.956,64.481,64.481,0,0,0-18.306-24.31,75.68,75.68,0,0,0-27.238-13.987,119.787,119.787,0,0,0-33.906-4.614,109.853,109.853,0,0,0-17.5,1.245c-4.907.8-9.814,1.833-14.644,3l2.856-42.4h104.636V654.346H3328.676Z" transform="translate(0 561.953)"/>
    <g id="Group_1" data-name="Group 1">
      <path id="Path_1" data-name="Path 1" d="M522,0V544H0Z" transform="translate(2463.832 420.047)" fill="#fff"/>
      <path id="path578" d="M2283.684,963.75A231.54,231.54,0,0,1,2240.995,504.7a358.809,358.809,0,0,1,688.327,0c6.338,1.2,12.571,2.645,18.787,4.358a231.546,231.546,0,0,1-61.478,454.7h-82.815V767.136h-95.2V963.75h-76.01V646.605h-95.192V963.747h-76.081V767.133h-95.194V963.747h-82.458Zm82.54-212.8h95.192V655.759h-95.192Zm0-111.01h95.192V544.75h-95.192Zm171.2-7.321h95.192V537.429h-95.192Zm0-111.009h95.192V426.417h-95.192ZM2708.7,751.175h95.195V655.981H2708.7Zm0-111.014h95.195V544.967H2708.7Z" transform="translate(136.922 0.693)" fill="#079bc6" fill-rule="evenodd"/>
    </g>
  </g>
</svg>
